<svg width="49" height="49" viewBox="0 0 49 49" fill="none" xmlns="http://www.w3.org/2000/svg">
<path d="M1.5 28.675C1.5 27.2943 2.61929 26.175 4 26.175H23.025C24.4057 26.175 25.525 27.2943 25.525 28.675V35.95C25.525 37.3307 24.4057 38.45 23.025 38.45H4C2.61929 38.45 1.5 37.3307 1.5 35.95V28.675Z" stroke="#152C5B" stroke-width="3"/>
<path d="M19.975 38.775V47" stroke="#152C5B" stroke-width="3" stroke-linecap="round" stroke-linejoin="round"/>
<path d="M14.1 12.925V25.85" stroke="#152C5B" stroke-width="3" stroke-linecap="round" stroke-linejoin="round"/>
<path d="M19.975 12.925V17.625" stroke="#152C5B" stroke-width="3" stroke-linecap="round" stroke-linejoin="round"/>
<path d="M7.04999 38.775V47" stroke="#152C5B" stroke-width="3" stroke-linecap="round" stroke-linejoin="round"/>
<path d="M6.48531 1.85389C6.54956 1.64362 6.74363 1.5 6.96349 1.5H21.2365C21.4563 1.5 21.6504 1.64362 21.7147 1.85389L23.1492 1.41556L21.7147 1.85389L24.8008 11.9539C24.899 12.2752 24.6586 12.6 24.3226 12.6H3.87738C3.54139 12.6 3.30102 12.2752 3.3992 11.9539L6.48531 1.85389Z" stroke="#FF498B" stroke-width="3"/>
</svg>
