<svg width="48" height="48" viewBox="0 0 48 48" fill="none" xmlns="http://www.w3.org/2000/svg">
<rect width="48" height="48" fill="white"/>
<mask id="path-1-inside-1" fill="white">
<path fill-rule="evenodd" clip-rule="evenodd" d="M17.4009 5C16.5598 5 15.8087 5.52613 15.5213 6.31651L13.8182 11H8C3.58172 11 0 14.5817 0 19V34C0 38.4183 3.58172 42 8 42H40C44.4183 42 48 38.4183 48 34V19C48 14.5817 44.4183 11 40 11H34.1818L32.4787 6.31651C32.1913 5.52614 31.4402 5 30.5991 5H17.4009Z"/>
</mask>
<path d="M15.5213 6.31651L18.3406 7.34174L18.3407 7.34174L15.5213 6.31651ZM13.8182 11V14H15.9195L16.6376 12.0252L13.8182 11ZM34.1818 11L31.3624 12.0252L32.0805 14H34.1818V11ZM32.4787 6.31651L35.2981 5.29128L35.2981 5.29128L32.4787 6.31651ZM18.3407 7.34174C18.1969 7.73693 17.8214 8 17.4009 8V2C15.2983 2 13.4204 3.31533 12.7019 5.29128L18.3407 7.34174ZM16.6376 12.0252L18.3406 7.34174L12.7019 5.29128L10.9988 9.97477L16.6376 12.0252ZM8 14H13.8182V8H8V14ZM3 19C3 16.2386 5.23858 14 8 14V8C1.92487 8 -3 12.9249 -3 19H3ZM3 34V19H-3V34H3ZM8 39C5.23858 39 3 36.7614 3 34H-3C-3 40.0751 1.92487 45 8 45V39ZM40 39H8V45H40V39ZM45 34C45 36.7614 42.7614 39 40 39V45C46.0751 45 51 40.0751 51 34H45ZM45 19V34H51V19H45ZM40 14C42.7614 14 45 16.2386 45 19H51C51 12.9249 46.0751 8 40 8V14ZM34.1818 14H40V8H34.1818V14ZM29.6594 7.34174L31.3624 12.0252L37.0012 9.97477L35.2981 5.29128L29.6594 7.34174ZM30.5991 8C30.1786 8 29.8031 7.73693 29.6594 7.34174L35.2981 5.29128C34.5796 3.31534 32.7017 2 30.5991 2V8ZM17.4009 8H30.5991V2H17.4009V8Z" fill="#152C5B" mask="url(#path-1-inside-1)"/>
<circle cx="24" cy="26" r="6.5" stroke="#FF498B" stroke-width="3"/>
<path d="M41 18L34 18" stroke="#152C5B" stroke-width="3" stroke-linecap="round" stroke-linejoin="round"/>
</svg>
