<svg width="48" height="48" viewBox="0 0 48 48" fill="none" xmlns="http://www.w3.org/2000/svg">
<rect width="48" height="48" fill="white"/>
<path d="M31.5 40.5C31.5 41.6212 30.4318 43.1263 27.5466 44.4378C24.7968 45.6877 20.8926 46.5 16.5 46.5C12.1074 46.5 8.20323 45.6877 5.45344 44.4378C2.56825 43.1263 1.5 41.6212 1.5 40.5C1.5 39.3788 2.56825 37.8737 5.45344 36.5622C8.20323 35.3123 12.1074 34.5 16.5 34.5C20.8926 34.5 24.7968 35.3123 27.5466 36.5622C30.4318 37.8737 31.5 39.3788 31.5 40.5Z" fill="white" stroke="#152C5B" stroke-width="3"/>
<path d="M28.5 14.3106C28.5 18.0133 27.0508 24.9373 24.6525 30.9551C23.4575 33.9537 22.0663 36.6245 20.5762 38.5175C19.0438 40.4641 17.6551 41.2826 16.5 41.2826C15.3449 41.2826 13.9562 40.4641 12.4238 38.5175C10.9337 36.6245 9.54253 33.9537 8.34748 30.9551C5.94922 24.9373 4.5 18.0133 4.5 14.3106C4.5 7.15188 9.95378 1.5 16.5 1.5C23.0462 1.5 28.5 7.15188 28.5 14.3106Z" fill="white" stroke="#152C5B" stroke-width="3"/>
<path d="M20.5 13.5652C20.5 16.2554 18.4258 18.3261 16 18.3261C13.5742 18.3261 11.5 16.2554 11.5 13.5652C11.5 10.8751 13.5742 8.80435 16 8.80435C18.4258 8.80435 20.5 10.8751 20.5 13.5652Z" stroke="#FF498B" stroke-width="3"/>
</svg>
